<svg width="13" height="12" viewBox="0 0 13 12" fill="none" xmlns="http://www.w3.org/2000/svg">
<path d="M10.0692 5.36533C10.4719 4.67933 10.6506 3.88 10.5699 3.072C10.4506 1.88267 9.78655 0.831333 8.70122 0.112L7.96455 1.22267C8.71055 1.71733 9.16455 2.422 9.24322 3.20533C9.31655 3.942 9.05655 4.668 8.52855 5.196L7.73389 5.99066L8.81255 6.30733C11.6339 7.134 11.6666 9.97133 11.6666 10H12.9999C12.9999 8.80733 12.3626 6.47667 10.0692 5.36533Z" fill="#6A6A6A"/>
<path d="M5.33325 5.99999C6.80392 5.99999 7.99992 4.80399 7.99992 3.33332C7.99992 1.86266 6.80392 0.666656 5.33325 0.666656C3.86259 0.666656 2.66659 1.86266 2.66659 3.33332C2.66659 4.80399 3.86259 5.99999 5.33325 5.99999ZM5.33325 1.99999C6.06859 1.99999 6.66659 2.59799 6.66659 3.33332C6.66659 4.06866 6.06859 4.66666 5.33325 4.66666C4.59792 4.66666 3.99992 4.06866 3.99992 3.33332C3.99992 2.59799 4.59792 1.99999 5.33325 1.99999ZM6.33325 6.66666H4.33325C2.12725 6.66666 0.333252 8.46066 0.333252 10.6667V11.3333H1.66659V10.6667C1.66659 9.19599 2.86259 7.99999 4.33325 7.99999H6.33325C7.80392 7.99999 8.99992 9.19599 8.99992 10.6667V11.3333H10.3333V10.6667C10.3333 8.46066 8.53925 6.66666 6.33325 6.66666Z" fill="#6A6A6A"/>
</svg>
