<svg width="12" height="12" viewBox="0 0 12 12" fill="none" xmlns="http://www.w3.org/2000/svg">
<path d="M4.66667 0H0.666667C0.298667 0 0 0.298667 0 0.666667V5.66667C0 6.03467 0.298667 6.33333 0.666667 6.33333H4.66667C5.03467 6.33333 5.33333 6.03467 5.33333 5.66667V0.666667C5.33333 0.298667 5.03467 0 4.66667 0ZM4 5H1.33333V1.33333H4V5ZM7.33333 4.33333H11.3333C11.702 4.33333 12 4.03467 12 3.66667V0.666667C12 0.298667 11.702 0 11.3333 0H7.33333C6.96467 0 6.66667 0.298667 6.66667 0.666667V3.66667C6.66667 4.03467 6.96467 4.33333 7.33333 4.33333ZM8 1.33333H10.6667V3H8V1.33333ZM0 11.3333C0 11.7013 0.298667 12 0.666667 12H4.66667C5.03467 12 5.33333 11.7013 5.33333 11.3333V8.33333C5.33333 7.96533 5.03467 7.66667 4.66667 7.66667H0.666667C0.298667 7.66667 0 7.96533 0 8.33333V11.3333ZM1.33333 9H4V10.6667H1.33333V9ZM6.66667 11.3333C6.66667 11.7013 6.96467 12 7.33333 12H11.3333C11.702 12 12 11.7013 12 11.3333V6.33333C12 5.96533 11.702 5.66667 11.3333 5.66667H7.33333C6.96467 5.66667 6.66667 5.96533 6.66667 6.33333V11.3333ZM8 7H10.6667V10.6667H8V7Z" fill="#6A6A6A"/>
</svg>
