<svg width="14" height="14" viewBox="0 0 14 14" fill="none" xmlns="http://www.w3.org/2000/svg">
<path d="M13.4955 7.22065L7.49545 0.553987C7.24278 0.272654 6.75745 0.272654 6.50479 0.553987L0.504785 7.22065C0.328119 7.41599 0.284119 7.69732 0.391452 7.93799C0.498119 8.17865 0.736785 8.33332 1.00012 8.33332H2.33345V13C2.33345 13.368 2.63145 13.6667 3.00012 13.6667H5.00012C5.36878 13.6667 5.66678 13.368 5.66678 13V10.3333H8.33345V13C8.33345 13.368 8.63145 13.6667 9.00012 13.6667H11.0001C11.3688 13.6667 11.6668 13.368 11.6668 13V8.33332H13.0001C13.2635 8.33332 13.5021 8.17865 13.6088 7.93799C13.7161 7.69732 13.6721 7.41665 13.4955 7.22065Z" fill="#6A6A6A"/>
</svg>
